<svg width="23" height="20" viewBox="0 0 23 20" xmlns="http://www.w3.org/2000/svg" fill="#000000"><path d="M9.38708 19.7903L9.29291 19.7071L0.292908 10.7071C-0.0675763 10.3467 -0.0953082 9.77936 0.209717 9.38707L0.292908 9.29284L9.29291 0.292837C9.68343 -0.0976829 10.3166 -0.0976829 10.7071 0.292837C11.0676 0.653327 11.0953 1.22062 10.7903 1.61291L10.7071 1.70714L3.41498 9.00097L22 8.99999C22.5523 8.99999 23 9.44771 23 9.99999C23 10.5523 22.5523 11 22 11L3.41498 11.001L10.7071 18.2928C11.0676 18.6533 11.0953 19.2206 10.7903 19.6129L10.7071 19.7071C10.3466 20.0676 9.77938 20.0953 9.38708 19.7903Z"></path></svg>