<svg width="21" height="21" viewBox="0 0 21 21" fill="#000000" xmlns="http://www.w3.org/2000/svg"><path d="M1.6129 0.209705L1.70711 0.292893L10.285 8.871L18.8643 0.292893L18.9585 0.209705C19.3508 -0.0953203 19.9181 -0.0675907 20.2785 0.292893C20.6691 0.683417 20.6691 1.31658 20.2785 1.70711L11.7 10.285L20.2785 18.8643C20.6691 19.2548 20.6691 19.888 20.2785 20.2785C19.9181 20.639 19.3508 20.6667 18.9585 20.3617L18.8643 20.2785L10.285 11.7L1.70711 20.2785L1.6129 20.3617C1.22061 20.6667 0.653377 20.639 0.292893 20.2785C-0.0976311 19.888 -0.0976311 19.2548 0.292893 18.8643L8.871 10.285L0.292893 1.70711C-0.0976311 1.31658 -0.0976311 0.683417 0.292893 0.292893C0.653377 -0.0675907 1.22061 -0.0953203 1.6129 0.209705Z"></path></svg>