<svg width="24" height="24" viewBox="0 0 24 24" xmlns="http://www.w3.org/2000/svg"><g fill="none" fill-rule="evenodd"><path fill="#fff" fill-opacity="0" d="M-436-2093h1440V707H-436z"></path><path d="M7.321 11.768l.772-.7 6.075-5.763c.214-.203.466-.305.755-.305.29 0 .541.102.756.305.214.203.321.437.321.701 0 .264-.107.508-.321.732L9.604 12.5l6.075 5.762c.214.224.321.468.321.732 0 .264-.107.498-.321.701a1.062 1.062 0 01-.756.305c-.29 0-.54-.102-.755-.305L7.32 13.232A.973.973 0 017 12.5c0-.285.107-.528.321-.732z" fill="#2C2C2C"></path></g></svg>