<svg width="32" height="32" viewBox="0 0 32 32" xmlns="http://www.w3.org/2000/svg"><g stroke="none" stroke-width="1" fill="none" fill-rule="evenodd"><g transform="translate(-804.000000, -250.000000)"><rect fill="#FFFFFF" x="0" y="0" width="1366" height="1926"></rect><g transform="translate(171.000000, 241.000000)" fill="#2C2C2C"><path d="M649,15 C649.552285,15 650,15.4477153 650,16 L650,22.999 L657,23 C657.552285,23 658,23.4477153 658,24 C658,24.5522847 657.552285,25 657,25 L650,24.999 L650,32 C650,32.5522847 649.552285,33 649,33 C648.447715,33 648,32.5522847 648,32 L648,24.999 L641,25 C640.447715,25 640,24.5522847 640,24 C640,23.4477153 640.447715,23 641,23 L648,22.999 L648,16 C648,15.4477153 648.447715,15 649,15 Z" fill="#2C2C2C"></path></g></g></g></svg>