<svg  width="32" height="32" viewBox="0 0 27 28" fill="#2C2C2C" xmlns="http://www.w3.org/2000/svg"><path d="M11.64 0C18.0686 0 23.28 5.21141 23.28 11.64C23.28 14.7795 22.0371 17.6287 20.0165 19.7224L26.5871 26.2929C26.9776 26.6834 26.9776 27.3166 26.5871 27.7071C26.2266 28.0676 25.6594 28.0953 25.2671 27.7903L25.1729 27.7071L18.5055 21.0407C16.5808 22.4488 14.2075 23.28 11.64 23.28C5.21141 23.28 0 18.0686 0 11.64C0 5.21141 5.21141 0 11.64 0ZM11.64 2C6.31598 2 2 6.31598 2 11.64C2 16.964 6.31598 21.28 11.64 21.28C16.964 21.28 21.28 16.964 21.28 11.64C21.28 6.31598 16.964 2 11.64 2Z"></path></svg>